<?xml version="1.0" encoding="utf-8"?>
<!-- Generator: Adobe Illustrator 16.0.0, SVG Export Plug-In . SVG Version: 6.00 Build 0)  -->
<!DOCTYPE svg PUBLIC "-//W3C//DTD SVG 1.1//EN" "http://www.w3.org/Graphics/SVG/1.1/DTD/svg11.dtd">
<svg version="1.1" id="Layer_1" xmlns="http://www.w3.org/2000/svg" xmlns:xlink="http://www.w3.org/1999/xlink" x="0px" y="0px"
	 width="20px" height="20px" viewBox="0 0 20 20" enable-background="new 0 0 20 20" xml:space="preserve">
<g>
	<path fill="#19B99A" d="M10.012,19.347c-2.495,0-4.838-0.97-6.602-2.733c-1.763-1.764-2.735-4.109-2.735-6.602
		c0-2.494,0.972-4.838,2.735-6.602c1.764-1.763,4.107-2.734,6.602-2.734c2.493,0,4.838,0.971,6.602,2.734
		c1.763,1.763,2.733,4.107,2.733,6.602c0,2.493-0.971,4.838-2.733,6.602C14.85,18.377,12.505,19.347,10.012,19.347z"/>
	<path fill="#E6E7E8" d="M10.012,1.351c4.782,0,8.66,3.877,8.66,8.661c0,4.782-3.878,8.663-8.66,8.663
		c-4.784,0-8.66-3.881-8.66-8.663C1.352,5.228,5.228,1.351,10.012,1.351 M10.012,0C8.66,0,7.35,0.265,6.114,0.788
		C4.922,1.292,3.852,2.013,2.932,2.932C2.014,3.851,1.292,4.921,0.788,6.114C0.266,7.349,0,8.66,0,10.011
		c0,1.35,0.266,2.661,0.788,3.896c0.503,1.193,1.226,2.265,2.144,3.185c0.919,0.916,1.99,1.641,3.182,2.144
		c1.235,0.522,2.546,0.788,3.897,0.788c1.35,0,2.662-0.266,3.897-0.788c1.192-0.503,2.263-1.228,3.181-2.144
		c0.92-0.92,1.641-1.991,2.146-3.185c0.522-1.235,0.788-2.546,0.788-3.896c0-1.351-0.266-2.663-0.788-3.897
		C18.73,4.921,18.01,3.851,17.09,2.932c-0.918-0.919-1.988-1.641-3.181-2.145C12.674,0.265,11.361,0,10.012,0z"/>
	<g>
		<path fill="#FFFFFF" d="M9.885,7.63L9.732,8.18H9.23l0.654-2.14h0.634l0.664,2.14h-0.521L10.497,7.63H9.885z M10.427,7.269
			l-0.133-0.454c-0.038-0.127-0.077-0.286-0.107-0.413h-0.007c-0.032,0.127-0.063,0.289-0.098,0.413L9.955,7.269H10.427z"/>
	</g>
	<path fill="#FFFFFF" d="M13.516,7.013h-0.415c0,0.815-0.329,1.548-0.862,2.082c-0.535,0.534-1.269,0.863-2.084,0.863
		S8.606,9.629,8.072,9.095C7.538,8.561,7.21,7.828,7.21,7.013S7.538,5.464,8.072,4.93c0.534-0.534,1.268-0.862,2.083-0.863
		c0.815,0,1.549,0.329,2.084,0.863c0.533,0.535,0.862,1.268,0.862,2.083H13.516h0.415c0-1.041-0.424-1.988-1.105-2.669
		c-0.683-0.683-1.63-1.106-2.671-1.106S8.167,3.661,7.485,4.343C6.803,5.025,6.379,5.972,6.379,7.013S6.803,9,7.485,9.682
		c0.682,0.682,1.628,1.105,2.669,1.105s1.988-0.423,2.671-1.105C13.507,9,13.931,8.054,13.931,7.013H13.516z"/>
	<path fill="#FFFFFF" d="M11.136,11.369c-0.316,0.071-0.643,0.109-0.981,0.109c-0.543,0-1.065-0.098-1.548-0.276L8.381,14.02
		l1.825-0.4l-1.168,3.635l3.625-5.577l-2.029,0.506L11.136,11.369z"/>
</g>
</svg>
