<?xml version="1.0" encoding="utf-8"?>
<!-- Generator: Adobe Illustrator 16.0.0, SVG Export Plug-In . SVG Version: 6.00 Build 0)  -->
<!DOCTYPE svg PUBLIC "-//W3C//DTD SVG 1.1//EN" "http://www.w3.org/Graphics/SVG/1.1/DTD/svg11.dtd">
<svg version="1.1" id="Layer_1" xmlns="http://www.w3.org/2000/svg" xmlns:xlink="http://www.w3.org/1999/xlink" x="0px" y="0px"
	 width="20px" height="20px" viewBox="0 0 20 20" enable-background="new 0 0 20 20" xml:space="preserve">
<g>
	<path fill="#F26E24" d="M10.032,19.388c-2.499,0-4.848-0.973-6.616-2.74c-1.767-1.767-2.74-4.116-2.74-6.615
		s0.973-4.848,2.74-6.616c1.768-1.767,4.117-2.74,6.616-2.74s4.849,0.973,6.615,2.74c1.768,1.768,2.74,4.117,2.74,6.616
		s-0.973,4.849-2.74,6.615C14.881,18.415,12.531,19.388,10.032,19.388z"/>
	<path fill="#E6E7E8" d="M10.032,1.354c4.793,0,8.679,3.886,8.679,8.679s-3.886,8.679-8.679,8.679s-8.679-3.886-8.679-8.679
		S5.239,1.354,10.032,1.354 M10.032,0C8.678,0,7.364,0.266,6.127,0.789C4.932,1.294,3.859,2.018,2.938,2.938
		S1.294,4.932,0.789,6.127C0.266,7.364,0,8.678,0,10.032c0,1.354,0.266,2.668,0.789,3.905c0.505,1.195,1.229,2.268,2.149,3.188
		s1.994,1.645,3.188,2.149c1.237,0.523,2.551,0.789,3.905,0.789c1.354,0,2.668-0.266,3.905-0.789
		c1.195-0.505,2.268-1.229,3.188-2.149s1.645-1.993,2.149-3.188c0.523-1.237,0.789-2.552,0.789-3.905
		c0-1.354-0.266-2.668-0.789-3.905c-0.505-1.195-1.229-2.268-2.149-3.188s-1.993-1.644-3.188-2.149C12.7,0.266,11.386,0,10.032,0z"
		/>
	<g>
		<g>
			<g>
				<path fill="#FFFFFF" d="M10.654,6.254c-0.09,0.045-0.291,0.092-0.551,0.092c-0.741,0-1.123-0.461-1.123-1.072
					c0-0.731,0.521-1.139,1.17-1.139c0.251,0,0.442,0.051,0.528,0.096L10.58,4.615c-0.099-0.041-0.235-0.079-0.407-0.079
					c-0.385,0-0.685,0.232-0.685,0.709c0,0.43,0.255,0.7,0.688,0.7c0.146,0,0.309-0.032,0.404-0.07L10.654,6.254z"/>
			</g>
			<path fill="#FFFFFF" d="M12.609,5.241h-0.371c0,0.306-0.062,0.595-0.173,0.859c-0.168,0.396-0.447,0.733-0.8,0.971
				c-0.352,0.238-0.775,0.376-1.233,0.376c-0.306,0-0.595-0.062-0.859-0.173c-0.396-0.167-0.733-0.447-0.971-0.8
				C7.964,6.122,7.826,5.699,7.826,5.241c0-0.306,0.062-0.595,0.173-0.859c0.167-0.396,0.447-0.733,0.8-0.971
				c0.353-0.238,0.775-0.376,1.233-0.376c0.306,0,0.595,0.062,0.859,0.173c0.395,0.167,0.733,0.447,0.971,0.8
				s0.376,0.775,0.376,1.233H12.609h0.371c0-0.406-0.082-0.795-0.231-1.148c-0.225-0.529-0.598-0.979-1.067-1.296
				c-0.471-0.318-1.04-0.504-1.649-0.504c-0.406,0-0.795,0.082-1.148,0.232C8.355,2.748,7.905,3.122,7.587,3.592
				s-0.504,1.04-0.504,1.649c0,0.406,0.083,0.795,0.232,1.148C7.54,6.918,7.913,7.368,8.383,7.686s1.04,0.504,1.649,0.504
				c0.406,0,0.795-0.083,1.147-0.232c0.53-0.224,0.979-0.598,1.297-1.068c0.318-0.47,0.504-1.04,0.504-1.649H12.609z"/>
		</g>
		<polyline fill="#FFFFFF" points="9.711,8.731 9.711,9.755 10.354,9.755 10.354,8.731 		"/>
		<g>
			<path fill="#FFFFFF" d="M7.824,11.655H5.965c-0.099,0-0.194,0.024-0.278,0.065c-0.125,0.062-0.224,0.159-0.291,0.274
				c-0.066,0.114-0.104,0.247-0.104,0.389v0.958h0.643v-0.958c0-0.037,0.014-0.065,0.024-0.077c0.006-0.007,0.009-0.009,0.01-0.009
				l-0.001-0.003l0.001,0.003h0l-0.001-0.003l0.001,0.003l-0.005-0.014v0.015l0.005-0.001l-0.005-0.014v0.015h1.859V11.655z"/>
			<path fill="#FFFFFF" d="M14.771,13.342v-0.958c0-0.188-0.064-0.362-0.181-0.498c-0.058-0.067-0.13-0.124-0.213-0.165
				s-0.179-0.065-0.278-0.065h-1.875v0.644h1.875v-0.016l-0.003,0.016h0.003v-0.016l-0.003,0.016l0.001-0.009l-0.003,0.008
				l0.002,0.001l0.001-0.009l-0.003,0.008c0,0,0.002,0.001,0.005,0.004c0.006,0.005,0.013,0.015,0.02,0.028
				c0.005,0.014,0.01,0.031,0.01,0.054v0.958H14.771z"/>
			<g>
				<polyline fill="#FFFFFF" points="13.553,14.151 15.23,15.829 15.493,15.566 13.816,13.889 				"/>
				<polyline fill="#FFFFFF" points="15.146,13.889 13.469,15.566 13.731,15.829 15.409,14.151 				"/>
			</g>
			<polygon fill="#FFFFFF" points="5.474,15.072 4.861,14.525 4.543,14.843 4.543,14.843 5.397,15.697 6.841,14.254 6.714,14.021 
							"/>
			<path fill="#FFFFFF" d="M11.396,11.978h-0.321c0,0.145-0.029,0.281-0.083,0.406c-0.079,0.186-0.211,0.346-0.377,0.459
				c-0.167,0.111-0.366,0.177-0.583,0.177c-0.145,0-0.281-0.028-0.405-0.081c-0.188-0.079-0.347-0.212-0.459-0.378
				c-0.113-0.168-0.178-0.366-0.179-0.583c0-0.146,0.03-0.281,0.083-0.406c0.079-0.186,0.211-0.346,0.377-0.459
				c0.167-0.112,0.366-0.177,0.583-0.177c0.145,0,0.281,0.029,0.405,0.082c0.188,0.079,0.347,0.211,0.459,0.378
				c0.113,0.167,0.179,0.366,0.179,0.583H11.396h0.321c0-0.232-0.047-0.455-0.133-0.656c-0.128-0.303-0.341-0.56-0.61-0.741
				c-0.269-0.182-0.595-0.289-0.943-0.288c-0.232,0-0.454,0.047-0.657,0.132c-0.302,0.128-0.559,0.341-0.741,0.611
				c-0.182,0.268-0.288,0.594-0.288,0.942c0,0.231,0.047,0.454,0.132,0.656c0.128,0.303,0.342,0.56,0.61,0.741
				s0.595,0.288,0.943,0.288c0.232,0,0.454-0.048,0.657-0.133c0.302-0.128,0.559-0.342,0.741-0.61s0.288-0.595,0.288-0.942H11.396z"
				/>
		</g>
	</g>
</g>
</svg>
