<?xml version="1.0" encoding="utf-8"?>
<!-- Generator: Adobe Illustrator 16.0.0, SVG Export Plug-In . SVG Version: 6.00 Build 0)  -->
<!DOCTYPE svg PUBLIC "-//W3C//DTD SVG 1.1//EN" "http://www.w3.org/Graphics/SVG/1.1/DTD/svg11.dtd">
<svg version="1.1" id="Layer_1" xmlns="http://www.w3.org/2000/svg" xmlns:xlink="http://www.w3.org/1999/xlink" x="0px" y="0px"
	 width="10.859px" height="20px" viewBox="0 0 10.859 20" enable-background="new 0 0 10.859 20" xml:space="preserve">
<g>
	<polygon fill="#231F20" points="2.949,2.016 4.101,0.864 3.715,0.477 2.562,1.629 2.562,0 2.016,0 2.016,1.629 0.864,0.477 
		0.478,0.864 1.629,2.016 0,2.016 0,2.562 1.629,2.562 0.478,3.714 0.864,4.101 2.016,2.949 2.016,4.578 2.562,4.578 2.562,2.949 
		3.715,4.101 4.101,3.714 2.949,2.562 4.578,2.562 4.578,2.016 	"/>
	<g>
		<g>
			<path fill="#231F20" d="M5.264,16.866c-0.687,0-1.244,0.559-1.244,1.244c0,0.688,0.557,1.244,1.244,1.244
				c0.687,0,1.244-0.557,1.244-1.244C6.508,17.424,5.95,16.866,5.264,16.866z M5.264,18.899c-0.435,0-0.789-0.354-0.789-0.789
				s0.354-0.787,0.789-0.787c0.435,0,0.789,0.353,0.789,0.787S5.699,18.899,5.264,18.899z"/>
			<path fill="#231F20" d="M7.573,8.424c0-1.123-0.91-2.033-2.033-2.033c-1.123,0-2.033,0.91-2.033,2.033
				c0,1.123,0.91,2.033,2.033,2.033C6.663,10.458,7.573,9.547,7.573,8.424z M5.54,10.001c-0.87,0-1.577-0.707-1.577-1.577
				c0-0.869,0.708-1.577,1.577-1.577c0.869,0,1.578,0.708,1.578,1.577C7.118,9.294,6.409,10.001,5.54,10.001z"/>
			<path fill="#231F20" d="M8.286,11.759c-0.211,0-0.419,0.026-0.622,0.077L7.24,10.877c0.801-0.553,1.285-1.458,1.285-2.453
				c0-1.645-1.34-2.983-2.984-2.983c-1.645,0-2.983,1.338-2.983,2.983c0,1.646,1.338,2.984,2.983,2.984
				c0.208,0,0.412-0.021,0.612-0.063l0.458,1.036c-0.563,0.482-0.897,1.19-0.897,1.952c0,0.632,0.227,1.229,0.635,1.692
				l-0.316,0.357c-0.24-0.107-0.499-0.162-0.768-0.162c-1.042,0-1.89,0.848-1.89,1.89S4.221,20,5.264,20s1.891-0.848,1.891-1.89
				c0-0.347-0.095-0.682-0.271-0.973l0.389-0.438c0.318,0.137,0.662,0.208,1.013,0.208c1.419,0,2.574-1.155,2.574-2.574
				S9.705,11.759,8.286,11.759z M8.286,16.451c-0.41,0-0.793-0.117-1.118-0.319l-0.873,0.981c0.249,0.26,0.403,0.609,0.403,0.997
				c0,0.793-0.642,1.436-1.435,1.436c-0.792,0-1.435-0.643-1.435-1.436c0-0.792,0.643-1.434,1.435-1.434
				c0.323,0,0.621,0.106,0.86,0.286L6.98,16c-0.494-0.387-0.813-0.989-0.813-1.667c0-0.812,0.458-1.517,1.13-1.873l-0.129,0.058
				l-0.76-1.718c-0.271,0.099-0.563,0.153-0.869,0.153c-1.396,0-2.528-1.131-2.528-2.528c0-1.396,1.132-2.528,2.528-2.528
				s2.528,1.132,2.528,2.528c0,0.995-0.574,1.854-1.408,2.266l0.756,1.711c0.265-0.119,0.56-0.188,0.869-0.188
				c1.17,0,2.118,0.949,2.118,2.118S9.456,16.451,8.286,16.451z"/>
			<path fill="#231F20" d="M8.286,12.497c-1.015,0-1.837,0.823-1.837,1.836c0,1.015,0.822,1.837,1.837,1.837
				c1.015,0,1.836-0.822,1.836-1.837C10.122,13.32,9.3,12.497,8.286,12.497z M8.286,15.713c-0.762,0-1.381-0.618-1.381-1.381
				c0-0.761,0.62-1.381,1.381-1.381s1.381,0.62,1.381,1.381C9.667,15.095,9.047,15.713,8.286,15.713z"/>
		</g>
		<g>
			<path fill="#231F20" d="M7.69,0.535H4.869c0.101,0.14,0.189,0.289,0.266,0.444H6.93v3.264h3.469v9.762H9.814
				c0.039,0.102,0.063,0.212,0.063,0.328c0,0.041-0.007,0.078-0.012,0.116h0.994V3.733L7.69,0.535z M7.39,3.775V0.971l2.85,2.805
				H7.39z"/>
			<path fill="#231F20" d="M6.834,14.333c0-0.116-0.022-0.227,0.017-0.328H1.157V5.343c-0.16-0.062-0.314-0.135-0.46-0.22v9.325
				h6.121C6.813,14.411,6.834,14.374,6.834,14.333z"/>
		</g>
	</g>
</g>
</svg>
