<?xml version="1.0" encoding="utf-8"?>
<!-- Generator: Adobe Illustrator 16.0.0, SVG Export Plug-In . SVG Version: 6.00 Build 0)  -->
<!DOCTYPE svg PUBLIC "-//W3C//DTD SVG 1.1//EN" "http://www.w3.org/Graphics/SVG/1.1/DTD/svg11.dtd">
<svg version="1.1" id="Layer_1" xmlns="http://www.w3.org/2000/svg" xmlns:xlink="http://www.w3.org/1999/xlink" x="0px" y="0px"
	 width="41.038px" height="14.545px" viewBox="0 0 41.038 14.545" enable-background="new 0 0 41.038 14.545" xml:space="preserve">
<g>
	<path fill-rule="evenodd" clip-rule="evenodd" fill="#BD2026" d="M5.302,0c0.215,0,0.43,0,0.645,0
		C6.115,0.022,6.284,0.037,6.45,0.082c0.255,0.07,0.493,0.18,0.726,0.304C7.397,0.517,7.6,0.673,7.789,0.848
		c0.023,0.021,0.045,0.041,0.064,0.065c0.161,0.178,0.309,0.365,0.434,0.57c0.085,0.144,0.159,0.294,0.222,0.449
		c0.054,0.126,0.092,0.258,0.125,0.392C8.65,2.397,8.669,2.47,8.679,2.544c0.012,0.1,0.039,0.197,0.037,0.299
		c-0.004,0.262,0.02,0.525-0.041,0.784C8.643,3.753,8.621,3.882,8.581,4.006C8.496,4.254,8.388,4.493,8.249,4.717
		c-0.156,0.229-0.323,0.449-0.53,0.635C7.486,5.552,7.236,5.725,6.96,5.86C6.93,5.875,6.9,5.89,6.868,5.901
		C6.641,6,6.405,6.072,6.16,6.116C6.044,6.133,5.929,6.154,5.811,6.157C5.51,6.16,5.212,6.147,4.917,6.075
		C4.157,5.887,3.549,5.477,3.096,4.838c-0.23-0.325-0.387-0.682-0.48-1.069C2.607,3.731,2.608,3.691,2.594,3.654
		C2.557,3.522,2.561,3.385,2.539,3.251C2.526,3.164,2.533,3.077,2.533,2.989C2.544,2.756,2.578,2.527,2.63,2.3
		c0.053-0.188,0.117-0.373,0.201-0.55c0.002-0.009,0.006-0.017,0.01-0.025C2.865,1.681,2.886,1.633,2.915,1.59
		c0.07-0.132,0.153-0.256,0.24-0.379c0.057-0.069,0.117-0.136,0.17-0.209C3.683,0.61,4.113,0.325,4.613,0.146
		C4.835,0.063,5.066,0.018,5.302,0z"/>
	<path fill-rule="evenodd" clip-rule="evenodd" fill="#D9A327" d="M0,7.254c0-0.203,0-0.405,0-0.607
		c0.02-0.035,0.004-0.072,0.009-0.108c0-0.068,0.017-0.132,0.042-0.195c0.098-0.251,0.218-0.491,0.375-0.711
		c0.227-0.298,0.491-0.553,0.835-0.713c0.146-0.078,0.287-0.164,0.422-0.258c0.054-0.028,0.088-0.095,0.163-0.084
		C1.88,4.595,1.905,4.623,1.913,4.66c0.061,0.301,0.191,0.577,0.342,0.838C2.366,5.692,2.49,5.882,2.64,6.054
		C2.763,6.195,2.882,6.337,3.023,6.46c0.177,0.154,0.36,0.3,0.562,0.425C3.7,6.957,3.816,7.026,3.937,7.082
		c0.157,0.072,0.32,0.135,0.486,0.188c0.097,0.031,0.204,0.04,0.29,0.105c0.017,0.031-0.007,0.052-0.017,0.077
		C4.58,7.664,4.467,7.877,4.379,8.103C4.216,8.472,3.943,8.752,3.642,9.01C3.386,9.202,3.1,9.331,2.782,9.353
		C2.384,9.38,1.985,9.375,1.607,9.212C1.478,9.147,1.333,9.12,1.211,9.039c-0.148-0.099-0.305-0.186-0.442-0.3
		c-0.094-0.082-0.18-0.173-0.268-0.262C0.4,8.355,0.317,8.221,0.232,8.087c-0.075-0.16-0.13-0.327-0.183-0.496
		C0.018,7.524,0.023,7.451,0.011,7.38C0.003,7.338,0.021,7.294,0,7.254z"/>
	<path fill-rule="evenodd" clip-rule="evenodd" fill="#34495E" d="M1.97,14.545c-0.037,0-0.074,0-0.11,0
		c-0.036-0.021-0.075-0.005-0.112-0.01c-0.029,0-0.058,0-0.086,0c-0.267-0.018-0.501-0.125-0.724-0.264
		c-0.14-0.097-0.262-0.211-0.364-0.347c-0.074-0.099-0.123-0.212-0.171-0.324c-0.048-0.113-0.066-0.233-0.09-0.353
		c-0.016-0.07,0.005-0.143-0.018-0.212c-0.028-0.146,0.018-0.282,0.066-0.417C0.41,12.5,0.458,12.38,0.53,12.272
		c0.092-0.128,0.179-0.259,0.305-0.356c0.087-0.084,0.198-0.136,0.295-0.208c0.059-0.038,0.117-0.077,0.172-0.122
		c0.029-0.024,0.057-0.059,0.104-0.042c0.045,0.068,0.063,0.147,0.078,0.223c0.049,0.239,0.16,0.449,0.289,0.65
		c0.15,0.233,0.338,0.433,0.563,0.597c0.226,0.165,0.474,0.277,0.744,0.345c0.056,0.014,0.116,0.016,0.162,0.058
		c0.017,0.064-0.029,0.113-0.042,0.171c-0.078,0.229-0.196,0.435-0.373,0.604c-0.19,0.211-0.425,0.334-0.71,0.354
		c-0.019,0-0.037,0-0.055,0C2.031,14.529,2,14.529,1.97,14.545z"/>
	<path fill-rule="evenodd" clip-rule="evenodd" fill="#DDB75F" d="M0,6.536c0.006,0,0.011,0,0.017-0.002
		C0.013,6.572,0.033,6.613,0,6.646C0,6.609,0,6.573,0,6.536z"/>
	<path fill-rule="evenodd" clip-rule="evenodd" fill="#5C6A79" d="M1.747,14.528c0.038,0.002,0.079-0.017,0.112,0.017
		c-0.037,0-0.074,0-0.11,0c-0.006-0.004-0.008-0.007-0.006-0.011S1.746,14.528,1.747,14.528z"/>
	<path fill-rule="evenodd" clip-rule="evenodd" fill="#8C929C" d="M1.747,14.528c0.001,0.005,0.001,0.011,0.002,0.017
		c-0.031,0-0.062,0-0.092,0c0-0.006,0-0.011-0.001-0.017C1.686,14.528,1.716,14.528,1.747,14.528z"/>
	<path fill-rule="evenodd" clip-rule="evenodd" fill="#5B6978" d="M1.97,14.545c0.031-0.027,0.062-0.029,0.092,0
		C2.031,14.545,2,14.545,1.97,14.545z"/>
	<path fill-rule="evenodd" clip-rule="evenodd" fill="#19B899" d="M10.441,9.918c0-0.417,0.004-0.834-0.001-1.252
		c-0.002-0.209,0.083-0.366,0.248-0.485c0.22-0.157,0.471-0.234,0.736-0.262c0.392-0.039,0.771,0.007,1.12,0.204
		c0.043,0.024,0.067,0.003,0.1-0.013c0.564-0.272,1.133-0.281,1.7-0.012c0.261,0.124,0.391,0.324,0.386,0.63
		c-0.012,0.735-0.005,1.472-0.002,2.208c0,0.08-0.016,0.128-0.097,0.16c-0.133,0.053-0.26,0.121-0.391,0.183
		c-0.101,0.049-0.103,0.047-0.103-0.063c0-0.807,0-1.614,0-2.421c0-0.161-0.049-0.238-0.201-0.288
		c-0.282-0.093-0.567-0.094-0.849-0.002c-0.163,0.053-0.206,0.121-0.206,0.292c0,0.719-0.001,1.437,0.001,2.154
		c0,0.07-0.017,0.109-0.086,0.138c-0.133,0.055-0.261,0.122-0.391,0.184c-0.117,0.056-0.117,0.055-0.117-0.07
		c0-0.801,0-1.602,0-2.402c0-0.178-0.041-0.242-0.212-0.297c-0.282-0.091-0.567-0.089-0.849,0.006
		c-0.147,0.049-0.195,0.127-0.195,0.284c0,0.718-0.001,1.436,0.002,2.153c0,0.081-0.025,0.119-0.097,0.149
		c-0.135,0.058-0.267,0.124-0.399,0.187c-0.094,0.044-0.095,0.043-0.095-0.059C10.441,10.789,10.441,10.354,10.441,9.918z"/>
	<path fill-rule="evenodd" clip-rule="evenodd" fill="#34495E" d="M41.038,7.838c0,0.038,0,0.059,0,0.08c0,0.89,0,1.78,0,2.67
		c-0.001,0.169-0.098,0.288-0.225,0.381c-0.279,0.206-0.602,0.277-0.943,0.283c-0.324,0.007-0.634-0.051-0.92-0.211
		c-0.04-0.022-0.065-0.011-0.1,0.006c-0.564,0.276-1.133,0.284-1.7,0.018c-0.261-0.123-0.395-0.322-0.391-0.628
		c0.012-0.745,0.005-1.491,0.003-2.236c-0.001-0.063,0.015-0.099,0.076-0.125c0.141-0.06,0.277-0.13,0.415-0.195
		c0.102-0.048,0.102-0.047,0.102,0.062c0,0.813,0.002,1.626-0.002,2.439c0,0.134,0.055,0.218,0.174,0.261
		c0.302,0.11,0.605,0.108,0.908,0.001c0.124-0.044,0.178-0.133,0.177-0.269c-0.004-0.724-0.001-1.448-0.003-2.172
		c0-0.068,0.02-0.104,0.083-0.13c0.141-0.06,0.277-0.13,0.416-0.194C39.199,7.836,39.2,7.836,39.2,7.935c0,0.805,0,1.608,0,2.412
		c0,0.192,0.042,0.257,0.228,0.314c0.273,0.086,0.551,0.083,0.823-0.006c0.162-0.053,0.206-0.122,0.206-0.293
		c0-0.721,0.001-1.442-0.001-2.163c0-0.063,0.016-0.098,0.077-0.124C40.698,8.003,40.859,7.922,41.038,7.838z"/>
	<path fill-rule="evenodd" clip-rule="evenodd" fill="#19B899" d="M7.345,6.83C7.444,6.8,7.543,6.769,7.642,6.739
		c0.055-0.007,0.11-0.015,0.165-0.022c0.027-0.012,0.058,0.002,0.085-0.011c0.137-0.003,0.274-0.001,0.411,0.011
		C8.552,6.75,8.788,6.819,8.999,6.961c0.186,0.125,0.29,0.294,0.278,0.525c-0.005,0.104,0.032,0.23-0.016,0.306
		c-0.047,0.075-0.176,0.1-0.27,0.145c-0.08,0.039-0.161,0.075-0.24,0.115C8.702,8.075,8.686,8.063,8.687,8.01
		c0.001-0.142-0.003-0.282,0.001-0.424c0.003-0.133-0.054-0.226-0.177-0.27c-0.299-0.107-0.601-0.11-0.9-0.003
		C7.466,7.365,7.43,7.429,7.43,7.585c0,0.184,0.004,0.368-0.001,0.552C7.425,8.255,7.479,8.329,7.581,8.375
		c0.142,0.064,0.293,0.082,0.448,0.083c0.322,0.003,0.634,0.056,0.927,0.195C9.11,8.727,9.252,8.816,9.363,8.947
		c0.113,0.134,0.172,0.288,0.173,0.464c0.001,0.282-0.003,0.564,0.001,0.847c0.004,0.27-0.104,0.482-0.316,0.641
		c-0.32,0.24-0.688,0.34-1.083,0.353c-0.45,0.014-0.873-0.075-1.242-0.346c-0.217-0.158-0.33-0.373-0.324-0.646
		c0.002-0.12,0.001-0.239,0-0.359c0-0.036,0.005-0.063,0.043-0.08c0.161-0.074,0.322-0.15,0.481-0.228
		c0.057-0.027,0.066-0.006,0.066,0.048C7.161,9.834,7.167,10.027,7.16,10.22c-0.005,0.139,0.055,0.235,0.166,0.307
		c0.157,0.102,0.332,0.159,0.516,0.18c0.317,0.037,0.624,0.005,0.907-0.157c0.132-0.075,0.208-0.178,0.201-0.342
		c-0.01-0.236-0.009-0.473,0-0.709c0.005-0.151-0.062-0.251-0.184-0.323c-0.22-0.13-0.46-0.179-0.713-0.18
		C7.765,8.993,7.487,8.943,7.228,8.809C6.963,8.671,6.813,8.471,6.831,8.155c0.013-0.227,0-0.454-0.001-0.681
		c0.005-0.081,0.017-0.161,0.038-0.24C6.891,7.191,6.916,7.147,6.94,7.104c0.057-0.102,0.156-0.157,0.25-0.218
		C7.238,6.858,7.288,6.833,7.345,6.83z"/>
	<path fill-rule="evenodd" clip-rule="evenodd" fill="#19B899" d="M25.202,8.002c0.218-0.068,0.433-0.1,0.65-0.096
		c0.301,0.005,0.59,0.062,0.855,0.213c0.229,0.13,0.348,0.315,0.344,0.591c-0.009,0.736-0.005,1.473-0.001,2.209
		c0.001,0.095-0.022,0.148-0.114,0.186c-0.134,0.052-0.263,0.118-0.391,0.184c-0.07,0.036-0.091,0.026-0.091-0.058
		c0.003-0.816-0.001-1.632,0.004-2.448c0.001-0.138-0.057-0.223-0.18-0.266c-0.3-0.105-0.601-0.104-0.9,0
		C25.254,8.56,25.2,8.647,25.2,8.784c0.004,0.721,0.001,1.441,0.003,2.162c0,0.073-0.015,0.115-0.089,0.146
		c-0.145,0.059-0.283,0.131-0.424,0.199c-0.055,0.027-0.079,0.028-0.079-0.047c0.002-1.424,0.002-2.847,0.001-4.271
		c0-0.045,0.01-0.071,0.055-0.091c0.148-0.066,0.294-0.138,0.441-0.207c0.093-0.044,0.094-0.043,0.094,0.057
		c0,0.393,0,0.785,0,1.178C25.202,7.938,25.202,7.965,25.202,8.002z"/>
	<path fill-rule="evenodd" clip-rule="evenodd" fill="#34495E" d="M28.555,9.113c0-0.705,0.001-1.411-0.002-2.117
		c0-0.063,0.021-0.093,0.076-0.124c0.155-0.086,0.316-0.113,0.493-0.11c0.506,0.008,1.013,0.003,1.519,0.003
		c0.104,0,0.104,0.001,0.061,0.093c-0.059,0.125-0.121,0.248-0.175,0.374c-0.024,0.057-0.054,0.076-0.116,0.076
		c-0.39-0.003-0.779,0-1.169-0.003c-0.075,0-0.098,0.018-0.097,0.096c0.004,0.408,0.004,0.816,0,1.224
		c0,0.069,0.018,0.086,0.087,0.086c0.473-0.003,0.945,0,1.417-0.004c0.089,0,0.091,0.026,0.058,0.093
		c-0.062,0.123-0.123,0.247-0.177,0.373c-0.024,0.059-0.056,0.075-0.116,0.075c-0.39-0.003-0.779,0.001-1.169-0.004
		c-0.085-0.001-0.1,0.024-0.1,0.103c0.004,0.54,0.001,1.08,0.004,1.62c0,0.061-0.017,0.094-0.073,0.118
		c-0.146,0.064-0.289,0.133-0.432,0.204c-0.07,0.035-0.091,0.026-0.091-0.058C28.556,10.524,28.555,9.819,28.555,9.113z"/>
	<path fill-rule="evenodd" clip-rule="evenodd" fill="#19B899" d="M22.611,9.902c0-0.438-0.001-0.877,0.002-1.315
		c0-0.063-0.014-0.084-0.08-0.083c-0.203,0.005-0.405,0-0.607,0.003c-0.071,0.001-0.078-0.02-0.049-0.078
		c0.063-0.129,0.125-0.26,0.184-0.391c0.023-0.051,0.052-0.073,0.11-0.07c0.119,0.005,0.239-0.002,0.359,0.003
		c0.063,0.002,0.084-0.017,0.083-0.082c-0.004-0.297,0-0.595-0.003-0.892c-0.001-0.065,0.02-0.098,0.078-0.124
		c0.146-0.064,0.289-0.134,0.432-0.206c0.063-0.032,0.082-0.02,0.082,0.053c-0.003,0.386,0.001,0.773-0.003,1.159
		c-0.001,0.075,0.022,0.092,0.093,0.091c0.199-0.005,0.399,0,0.599-0.003c0.063-0.001,0.074,0.018,0.046,0.074
		c-0.067,0.138-0.133,0.276-0.194,0.416c-0.019,0.043-0.047,0.049-0.087,0.048c-0.119-0.001-0.239,0.007-0.358-0.002
		c-0.088-0.007-0.098,0.028-0.098,0.104c0.003,0.782,0.001,1.564,0.003,2.346c0.001,0.071-0.018,0.109-0.085,0.138
		c-0.145,0.061-0.285,0.13-0.424,0.2c-0.068,0.034-0.083,0.017-0.083-0.054C22.612,10.792,22.611,10.348,22.611,9.902z"/>
	<path fill-rule="evenodd" clip-rule="evenodd" fill="#34495E" d="M31.835,9.108c0-0.705,0.001-1.41-0.002-2.115
		c0-0.062,0.019-0.092,0.073-0.116c0.151-0.067,0.3-0.139,0.448-0.212c0.061-0.03,0.077-0.018,0.077,0.051
		c-0.001,1.423-0.001,2.845,0,4.268c0,0.053-0.02,0.076-0.063,0.096c-0.15,0.068-0.301,0.137-0.448,0.212
		c-0.072,0.036-0.087,0.017-0.087-0.058C31.835,10.524,31.835,9.816,31.835,9.108z"/>
	<path fill-rule="evenodd" clip-rule="evenodd" fill="#B98C20" d="M2.635,3.772c0.06,0.195,0.117,0.391,0.204,0.576
		c0.077,0.167,0.172,0.323,0.271,0.477c0.052,0.131,0.141,0.241,0.212,0.36c0.091,0.151,0.218,0.276,0.343,0.402
		c0.135,0.136,0.291,0.242,0.445,0.352c0.104,0.075,0.216,0.136,0.33,0.194c0.055,0.029,0.115,0.041,0.172,0.06
		c0.153,0.05,0.302,0.114,0.461,0.143c0.015,0.003,0.03,0.01,0.045,0.008c0.105-0.012,0.198,0.02,0.288,0.071
		c0.026,0.043-0.011,0.065-0.034,0.089c-0.035,0.037-0.066,0.078-0.114,0.1C5.151,6.583,5.039,6.587,4.932,6.543
		C4.831,6.502,4.72,6.489,4.615,6.454c-0.229-0.079-0.452-0.167-0.64-0.326C3.931,6.091,3.879,6.062,3.831,6.032
		C3.611,5.9,3.468,5.688,3.28,5.522c-0.064-0.056-0.099-0.139-0.146-0.21C3.048,5.179,2.942,5.055,2.888,4.905
		C2.824,4.726,2.716,4.563,2.694,4.366C2.685,4.284,2.66,4.201,2.627,4.121c-0.042-0.103-0.021-0.217-0.01-0.327
		C2.621,3.785,2.626,3.777,2.635,3.772z"/>
	<path fill-rule="evenodd" clip-rule="evenodd" fill="#B2871E" d="M5.414,6.426C5.372,6.424,5.327,6.435,5.299,6.388
		c-0.013-0.021-0.038-0.02-0.058-0.018C5.084,6.384,4.935,6.34,4.794,6.289C4.61,6.223,4.415,6.176,4.251,6.066
		c-0.11-0.074-0.219-0.152-0.33-0.226c-0.188-0.126-0.34-0.294-0.488-0.457C3.358,5.3,3.261,5.207,3.235,5.076
		C3.222,5.012,3.142,4.978,3.125,4.904C3.12,4.878,3.112,4.853,3.111,4.825c0.244,0.333,0.533,0.62,0.885,0.839
		c0.403,0.251,0.839,0.4,1.312,0.452c0.165,0.019,0.33,0.006,0.494,0.018c0.001,0.025-0.018,0.038-0.035,0.049
		C5.663,6.251,5.568,6.33,5.471,6.406C5.454,6.419,5.438,6.434,5.414,6.426z"/>
	<path fill-rule="evenodd" clip-rule="evenodd" fill="#B98C20" d="M2.594,3.753C2.603,3.725,2.611,3.697,2.62,3.669
		c0.021,0.032,0.009,0.069,0.015,0.103c0,0-0.003,0.003-0.003,0.003C2.609,3.784,2.59,3.789,2.594,3.753z"/>
	<path fill-rule="evenodd" clip-rule="evenodd" fill="#D49F26" d="M2.081,4.364C2.092,4.357,2.104,4.35,2.116,4.343
		c0.042,0.165,0.113,0.32,0.152,0.485c0.004,0.018,0.007,0.036,0.015,0.053c0.102,0.197,0.188,0.403,0.303,0.594
		c0.101,0.167,0.214,0.326,0.36,0.458C2.996,5.978,3.005,6.049,3.06,6.086c0.162,0.109,0.291,0.256,0.443,0.377
		c0.206,0.165,0.443,0.266,0.669,0.393c0.141,0.08,0.295,0.115,0.44,0.177c0.081,0.034,0.18,0.027,0.261,0.074
		c0,0.004,0.001,0.009,0.002,0.013c-0.041,0.098-0.08,0.196-0.169,0.263C4.541,7.33,4.372,7.285,4.21,7.222
		C4.033,7.153,3.851,7.085,3.693,6.984C3.521,6.875,3.346,6.77,3.189,6.633c-0.103-0.09-0.206-0.182-0.308-0.272
		C2.802,6.29,2.725,6.209,2.666,6.115C2.638,6.07,2.598,6.031,2.559,5.994C2.494,5.931,2.458,5.851,2.412,5.777
		C2.374,5.717,2.33,5.66,2.292,5.6C2.182,5.428,2.095,5.247,2.02,5.058C1.983,4.965,1.954,4.87,1.913,4.779
		C1.883,4.715,1.903,4.632,1.839,4.58C1.919,4.508,2,4.436,2.081,4.364z"/>
	<path fill-rule="evenodd" clip-rule="evenodd" fill="#CA5C1A" d="M3.644,8.983c0.287-0.255,0.55-0.53,0.717-0.883
		c0.051,0.063,0.021,0.137,0.027,0.205c-0.004,0.097-0.061,0.176-0.11,0.249c-0.14,0.21-0.281,0.419-0.462,0.601
		c-0.193,0.193-0.414,0.336-0.66,0.439C3.037,9.645,2.91,9.689,2.776,9.69c-0.05,0.001-0.097,0.012-0.144,0.028
		C2.516,9.76,2.398,9.755,2.28,9.726C2.129,9.689,1.973,9.679,1.821,9.644C1.759,9.575,1.708,9.503,1.729,9.402
		c0.025-0.017,0.052-0.017,0.079-0.006c0.309,0.124,0.635,0.093,0.95,0.067c0.24-0.02,0.475-0.114,0.665-0.282
		C3.497,9.116,3.603,9.086,3.644,8.983z"/>
	<path fill-rule="evenodd" clip-rule="evenodd" fill="#C45919" d="M3.644,8.983c0.032,0.058-0.021,0.094-0.048,0.108
		c-0.134,0.075-0.234,0.202-0.38,0.257C3.012,9.426,2.813,9.521,2.584,9.502C2.466,9.491,2.346,9.499,2.227,9.5
		C2.081,9.501,1.938,9.483,1.805,9.418C1.779,9.405,1.752,9.408,1.725,9.41C1.644,9.357,1.61,9.277,1.593,9.188
		c0.079,0.024,0.158,0.045,0.235,0.073c0.139,0.052,0.287,0.06,0.431,0.07c0.482,0.037,0.945-0.018,1.345-0.326
		C3.616,8.996,3.63,8.991,3.644,8.983z"/>
	<path fill-rule="evenodd" clip-rule="evenodd" fill="#314559" d="M1.456,11.474c0.06-0.029,0.07-0.104,0.127-0.136
		c0.031-0.033,0.033-0.101,0.102-0.089c0.035,0.093,0.081,0.181,0.089,0.283c0.011,0.142,0.056,0.274,0.125,0.398
		c0.068,0.123,0.127,0.251,0.207,0.367c0.038,0.057,0.075,0.11,0.129,0.153c0.104,0.081,0.171,0.201,0.281,0.275
		c0.154,0.103,0.311,0.2,0.494,0.252c0.126,0.036,0.253,0.065,0.378,0.105c0.03,0.063-0.023,0.104-0.039,0.155
		c-0.046,0.056-0.036,0.146-0.112,0.182c-0.191-0.049-0.383-0.095-0.563-0.18c-0.171-0.081-0.332-0.178-0.475-0.302
		c-0.213-0.185-0.4-0.396-0.53-0.646c-0.083-0.16-0.18-0.318-0.202-0.508c-0.01-0.082-0.055-0.16-0.069-0.244
		C1.417,11.519,1.437,11.496,1.456,11.474z"/>
	<path fill-rule="evenodd" clip-rule="evenodd" fill="#F16E22" d="M4.897,11.821c-0.124,0.106-0.25,0.21-0.387,0.298
		c-0.09,0.098-0.214,0.137-0.33,0.187c-0.047,0.021-0.097,0.036-0.147,0.048c-0.028,0.006-0.056,0.009-0.082,0.019
		c-0.292,0.059-0.578,0.038-0.858-0.059c-0.209-0.072-0.399-0.185-0.587-0.299c-0.076-0.046-0.123-0.126-0.179-0.194
		c-0.102-0.139-0.195-0.281-0.257-0.442c-0.077-0.184-0.128-0.372-0.144-0.571c0-0.029,0-0.06-0.001-0.09
		c0.002-0.045-0.004-0.091,0.011-0.135c0.004-0.01,0.011-0.018,0.02-0.022c0.064-0.008,0.13-0.005,0.19,0.013
		c0.169,0.049,0.343,0.038,0.51,0.019c0.208-0.023,0.418-0.052,0.62-0.116c0.295-0.095,0.572-0.225,0.824-0.41
		c0.191-0.141,0.345-0.318,0.512-0.482c0.062-0.061,0.102-0.145,0.163-0.209c0.039-0.019,0.054,0.011,0.07,0.035
		C4.868,9.44,4.888,9.474,4.91,9.506C4.985,9.63,5.075,9.743,5.163,9.859C5.177,9.885,5.194,9.91,5.188,9.942
		c0.081,0.191,0.157,0.383,0.191,0.589c0.053,0.146,0.047,0.293,0.018,0.442c-0.03,0.11-0.051,0.225-0.111,0.324
		c-0.013,0.023-0.026,0.046-0.038,0.07c-0.027,0.057-0.059,0.11-0.096,0.162c-0.026,0.035-0.048,0.073-0.075,0.108
		c-0.015,0.018-0.029,0.036-0.042,0.057c-0.006,0.01-0.014,0.02-0.021,0.028C4.98,11.762,4.96,11.817,4.897,11.821z"/>
	<path fill-rule="evenodd" clip-rule="evenodd" fill="#19B899" d="M21.356,8.719c0.004-0.277-0.116-0.467-0.349-0.599
		c-0.365-0.207-0.759-0.243-1.166-0.193c-0.253,0.03-0.489,0.112-0.695,0.267c-0.158,0.117-0.238,0.273-0.236,0.473
		c0.003,0.304,0.001,0.607,0.001,0.911c0,0.288,0.008,0.577-0.002,0.864s0.123,0.476,0.363,0.608
		c0.247,0.137,0.513,0.195,0.793,0.202c0.347,0.009,0.677-0.048,0.978-0.232c0.21-0.128,0.316-0.31,0.313-0.563
		C21.349,9.878,21.348,9.298,21.356,8.719z M20.756,9.588c0,0.27-0.003,0.539,0.001,0.809c0.002,0.118-0.048,0.197-0.152,0.236
		c-0.316,0.122-0.634,0.122-0.95,0c-0.109-0.043-0.157-0.128-0.157-0.245c0.001-0.537,0.001-1.073,0-1.609
		c0-0.126,0.053-0.214,0.17-0.256c0.308-0.113,0.617-0.114,0.924,0c0.111,0.041,0.167,0.12,0.165,0.247
		C20.752,9.042,20.756,9.314,20.756,9.588z"/>
	<path fill-rule="evenodd" clip-rule="evenodd" fill="#19B899" d="M18.042,8.716c0.011-0.275-0.114-0.461-0.341-0.594
		c-0.244-0.142-0.51-0.203-0.79-0.213c-0.339-0.014-0.665,0.039-0.965,0.209c-0.237,0.134-0.356,0.326-0.352,0.606
		c0.008,0.576,0.006,1.153,0,1.729c-0.003,0.257,0.105,0.439,0.32,0.569c0.307,0.187,0.644,0.24,0.997,0.228
		c0.329-0.013,0.636-0.091,0.903-0.292c0.152-0.114,0.228-0.268,0.226-0.459c-0.002-0.307,0-0.613,0-0.92
		C18.04,9.292,18.031,9.003,18.042,8.716z M17.276,10.642c-0.302,0.109-0.606,0.108-0.908,0.002
		c-0.119-0.042-0.179-0.124-0.176-0.259c0.006-0.27,0.002-0.539,0.002-0.809c0-0.271,0.003-0.54-0.001-0.81
		c-0.002-0.122,0.052-0.202,0.159-0.242c0.31-0.117,0.623-0.116,0.934-0.001c0.115,0.042,0.167,0.13,0.167,0.257
		c-0.003,0.533-0.003,1.066,0,1.6C17.452,10.512,17.396,10.598,17.276,10.642z"/>
	<path fill-rule="evenodd" clip-rule="evenodd" fill="#34495E" d="M35.885,9.579c0-0.291-0.01-0.583,0.003-0.874
		c0.013-0.274-0.114-0.453-0.338-0.583c-0.241-0.14-0.504-0.202-0.78-0.213c-0.372-0.014-0.728,0.043-1.044,0.254
		C33.543,8.285,33.448,8.45,33.45,8.68c0.007,0.61,0.002,1.221,0.003,1.83c0,0.043,0.002,0.086,0.011,0.128
		c0.043,0.209,0.192,0.328,0.366,0.422c0.294,0.16,0.612,0.204,0.942,0.19c0.306-0.013,0.593-0.084,0.849-0.259
		c0.176-0.12,0.273-0.278,0.267-0.502C35.879,10.187,35.885,9.883,35.885,9.579z M35.142,10.636c-0.313,0.118-0.63,0.119-0.942,0
		c-0.105-0.04-0.16-0.121-0.16-0.243c0.004-0.543,0.003-1.085,0.001-1.628c-0.001-0.112,0.046-0.193,0.146-0.233
		c0.32-0.127,0.645-0.127,0.966,0c0.1,0.039,0.147,0.118,0.146,0.231c-0.004,0.273-0.001,0.546-0.001,0.819
		c0,0.27-0.004,0.539,0.002,0.809C35.3,10.513,35.248,10.595,35.142,10.636z"/>
	<path fill-rule="evenodd" clip-rule="evenodd" fill="#C09122" d="M2.594,3.753c0.007,0.016,0.021,0.021,0.038,0.022
		c0,0.055,0.008,0.111,0,0.165c-0.021,0.132,0.05,0.243,0.081,0.362C2.73,4.369,2.721,4.436,2.751,4.505
		c0.078,0.182,0.142,0.371,0.238,0.544c0.06,0.107,0.15,0.198,0.208,0.306c0.114,0.213,0.318,0.34,0.467,0.519
		c0.078,0.093,0.188,0.145,0.291,0.204c0.054,0.031,0.091,0.081,0.148,0.112C4.23,6.26,4.356,6.326,4.494,6.379
		c0.104,0.041,0.213,0.08,0.319,0.104C4.915,6.507,5.008,6.58,5.122,6.555c0.05-0.011,0.085,0.051,0.139,0.036
		C5.213,6.646,5.166,6.702,5.119,6.757C5.065,6.782,5.016,6.749,4.968,6.74C4.761,6.7,4.564,6.628,4.368,6.55
		c-0.152-0.06-0.296-0.137-0.43-0.225C3.75,6.201,3.56,6.076,3.404,5.908c-0.116-0.126-0.239-0.245-0.34-0.384
		C2.909,5.31,2.77,5.089,2.664,4.847C2.595,4.686,2.555,4.516,2.497,4.353C2.457,4.237,2.424,4.106,2.445,3.975
		C2.495,3.901,2.544,3.827,2.594,3.753z"/>
	<path fill-rule="evenodd" clip-rule="evenodd" fill="#CF9C25" d="M4.874,7.106c-0.145-0.01-0.279-0.06-0.416-0.101
		C4.214,6.932,4.003,6.79,3.776,6.682c-0.091-0.044-0.172-0.124-0.26-0.174C3.367,6.421,3.284,6.265,3.13,6.185
		C3.069,6.153,3,6.096,2.979,6.01C2.967,5.963,2.915,5.946,2.884,5.913C2.745,5.756,2.616,5.59,2.514,5.407
		C2.436,5.267,2.38,5.115,2.302,4.974c-0.065-0.118-0.079-0.25-0.129-0.372C2.139,4.52,2.096,4.438,2.116,4.343
		c0.043-0.048,0.087-0.097,0.13-0.145c0.011-0.007,0.021-0.014,0.032-0.021C2.322,4.171,2.317,4.206,2.323,4.23
		C2.374,4.482,2.451,4.724,2.559,4.96c0.099,0.215,0.22,0.414,0.349,0.61c0.031,0.047,0.065,0.089,0.105,0.126
		C3.101,5.777,3.15,5.889,3.241,5.969c0.266,0.234,0.533,0.46,0.86,0.614C4.354,6.702,4.61,6.804,4.881,6.87
		c0.042,0.01,0.08,0.032,0.104,0.07C4.948,6.996,4.911,7.051,4.874,7.106z"/>
	<path fill-rule="evenodd" clip-rule="evenodd" fill="#C89723" d="M4.985,6.94c-0.138-0.062-0.291-0.08-0.43-0.134
		c-0.141-0.056-0.283-0.11-0.42-0.178C3.949,6.537,3.764,6.444,3.608,6.313C3.479,6.205,3.342,6.106,3.223,5.984
		C3.114,5.875,3.026,5.75,2.927,5.634C2.844,5.537,2.773,5.422,2.709,5.306C2.641,5.18,2.572,5.053,2.511,4.923
		C2.435,4.762,2.39,4.588,2.336,4.418c-0.025-0.08-0.02-0.166-0.058-0.241c0.027-0.042,0.057-0.08,0.095-0.111
		c0.044,0.129,0.092,0.257,0.115,0.392c0.015,0.088,0.041,0.171,0.079,0.252c0.059,0.127,0.106,0.259,0.168,0.386
		c0.085,0.171,0.2,0.32,0.309,0.475c0.099,0.142,0.223,0.258,0.341,0.382c0.229,0.238,0.504,0.411,0.791,0.56
		C4.38,6.616,4.595,6.705,4.83,6.741C4.904,6.752,4.996,6.766,5.06,6.83C5.035,6.867,5.01,6.903,4.985,6.94z"/>
	<path fill-rule="evenodd" clip-rule="evenodd" fill="#C79623" d="M5.06,6.83C4.908,6.802,4.764,6.747,4.613,6.715
		C4.547,6.702,4.47,6.695,4.416,6.639c-0.051-0.052-0.128-0.041-0.19-0.072c-0.192-0.1-0.372-0.217-0.551-0.338
		C3.469,6.088,3.3,5.91,3.137,5.727c-0.11-0.124-0.199-0.269-0.296-0.405C2.749,5.191,2.679,5.05,2.623,4.907
		c-0.061-0.152-0.149-0.296-0.164-0.47C2.453,4.368,2.45,4.276,2.386,4.209C2.354,4.174,2.38,4.114,2.374,4.065
		c0-0.005,0-0.011,0.001-0.017C2.398,4.024,2.422,4,2.445,3.975c0.042,0.079,0.041,0.17,0.051,0.251
		C2.52,4.408,2.599,4.57,2.648,4.74C2.695,4.896,2.78,5.046,2.87,5.191c0.121,0.194,0.251,0.378,0.402,0.546
		c0.17,0.19,0.365,0.352,0.575,0.498C4.031,6.364,4.225,6.469,4.43,6.55c0.192,0.076,0.386,0.153,0.597,0.171
		c0.031,0.002,0.062,0.023,0.092,0.035C5.106,6.775,5.094,6.794,5.082,6.812C5.075,6.818,5.067,6.824,5.06,6.83z"/>
	<path fill-rule="evenodd" clip-rule="evenodd" fill="#D2601C" d="M4.399,8.435c-0.004,0.069,0.036,0.13,0.039,0.197
		c0.017,0.033-0.004,0.058-0.02,0.084c-0.075,0.126-0.155,0.25-0.247,0.362c-0.094,0.114-0.195,0.226-0.31,0.323
		c-0.083,0.07-0.167,0.144-0.255,0.206C3.491,9.689,3.36,9.754,3.226,9.804c-0.28,0.103-0.57,0.152-0.869,0.145
		C2.223,9.945,2.094,9.895,1.958,9.907C1.92,9.91,1.897,9.883,1.881,9.851c-0.015-0.05-0.042-0.095-0.045-0.148
		C1.829,9.679,1.823,9.654,1.817,9.631c0.168,0.012,0.332,0.044,0.496,0.08c0.095,0.021,0.199,0.03,0.296-0.012
		c0.045-0.02,0.092-0.031,0.141-0.033c0.158-0.007,0.301-0.061,0.446-0.121c0.182-0.075,0.34-0.182,0.493-0.302
		c0.066-0.052,0.123-0.115,0.179-0.175c0.147-0.153,0.265-0.332,0.38-0.511c0.047-0.072,0.099-0.15,0.116-0.241
		C4.394,8.351,4.368,8.4,4.399,8.435z"/>
	<path fill-rule="evenodd" clip-rule="evenodd" fill="#E3681F" d="M1.95,10.273c-0.006-0.031-0.013-0.062-0.02-0.093
		c0.011-0.051-0.012-0.099-0.017-0.147c0.103-0.008,0.207-0.025,0.301,0.036c0.01,0.007,0.023,0.01,0.035,0.011
		c0.131,0.005,0.267,0.022,0.393-0.006c0.094-0.021,0.188-0.04,0.284-0.055C3.2,9.978,3.442,9.855,3.675,9.711
		C3.883,9.583,4.06,9.418,4.212,9.232c0.104-0.125,0.201-0.259,0.29-0.396c0.064-0.006,0.05,0.047,0.06,0.08
		C4.583,8.968,4.604,9.019,4.624,9.07c0.005,0.054-0.029,0.094-0.057,0.131C4.458,9.345,4.343,9.481,4.216,9.61
		c-0.195,0.199-0.417,0.36-0.665,0.481c-0.205,0.101-0.421,0.17-0.649,0.212c-0.229,0.042-0.458,0.022-0.687,0.031
		C2.122,10.338,2.035,10.309,1.95,10.273z"/>
	<path fill-rule="evenodd" clip-rule="evenodd" fill="#DA641D" d="M4.513,8.832C4.468,8.947,4.38,9.034,4.313,9.135
		c-0.08,0.12-0.182,0.213-0.277,0.315C3.902,9.598,3.737,9.701,3.567,9.802c-0.138,0.081-0.285,0.14-0.43,0.204
		c-0.058,0.025-0.124,0.022-0.185,0.033c-0.238,0.044-0.477,0.097-0.723,0.068c-0.089-0.095-0.216-0.027-0.317-0.074
		c0.001-0.006,0-0.012-0.003-0.018c-0.01-0.055-0.02-0.11-0.03-0.165c0.021,0.012,0.042,0.034,0.063,0.033
		c0.225-0.006,0.449,0.083,0.671,0.034c0.169-0.037,0.342-0.047,0.511-0.107C3.277,9.758,3.408,9.666,3.56,9.615
		c0.066-0.022,0.13-0.093,0.186-0.146C3.852,9.367,3.959,9.267,4.061,9.16c0.149-0.155,0.242-0.346,0.374-0.511
		c0.003-0.004,0.002-0.012,0.003-0.018C4.456,8.67,4.474,8.708,4.492,8.746C4.522,8.77,4.535,8.796,4.513,8.832z"/>
	<path fill-rule="evenodd" clip-rule="evenodd" fill="#2E4256" d="M1.675,11.248c0.013-0.022,0.026-0.046,0.039-0.069
		c0.02-0.055,0.048-0.105,0.079-0.155c0.012-0.019,0.022-0.047,0.056-0.032c0.065,0.085,0.066,0.191,0.084,0.288
		c0.051,0.286,0.129,0.563,0.284,0.811c0.117,0.188,0.263,0.349,0.451,0.476c0.252,0.171,0.526,0.271,0.826,0.306
		c0.006,0,0.012,0.004,0.017,0.007c0.003,0.097-0.049,0.161-0.124,0.212c-0.115-0.008-0.225-0.032-0.333-0.077
		c-0.063-0.026-0.137-0.028-0.199-0.062c-0.179-0.097-0.36-0.185-0.502-0.345c-0.135-0.152-0.283-0.291-0.378-0.476
		c-0.085-0.164-0.184-0.325-0.213-0.507C1.74,11.496,1.702,11.374,1.675,11.248z"/>
	<path fill-rule="evenodd" clip-rule="evenodd" fill="#EA6A20" d="M1.95,10.273c0.24,0.051,0.484,0.038,0.727,0.035
		c0.119-0.002,0.235-0.051,0.352-0.061c0.167-0.013,0.298-0.116,0.457-0.145c0.049-0.009,0.096-0.046,0.138-0.078
		C3.725,9.948,3.837,9.885,3.94,9.812C4.06,9.727,4.151,9.62,4.255,9.523c0.044-0.041,0.102-0.069,0.129-0.127
		c0.047-0.1,0.149-0.158,0.188-0.266C4.58,9.107,4.606,9.09,4.624,9.07c0.012,0.014,0.023,0.028,0.034,0.043
		C4.72,9.188,4.787,9.26,4.789,9.366c-0.055,0.101-0.122,0.19-0.201,0.274c-0.104,0.11-0.221,0.207-0.316,0.324
		c-0.048,0.06-0.117,0.087-0.174,0.129c-0.104,0.077-0.209,0.155-0.333,0.207c-0.109,0.046-0.215,0.098-0.326,0.142
		c-0.203,0.079-0.414,0.112-0.627,0.148c-0.17,0.029-0.339,0.037-0.509,0.029c-0.117-0.005-0.233-0.033-0.349-0.052
		C1.953,10.47,1.952,10.372,1.95,10.273z"/>
	<path fill-rule="evenodd" clip-rule="evenodd" fill="#2C3F53" d="M3.583,12.777c-0.024,0.036-0.048,0.073-0.072,0.11
		c-0.204-0.002-0.393-0.06-0.576-0.144c-0.215-0.099-0.408-0.226-0.565-0.405c-0.219-0.248-0.349-0.539-0.418-0.859
		c-0.036-0.163-0.073-0.325-0.11-0.487c-0.004-0.004-0.006-0.009-0.005-0.013c0.001-0.005,0.003-0.007,0.004-0.007
		c0.036-0.051,0.054-0.11,0.078-0.167c0.011-0.008,0.021-0.01,0.029,0.003c0.023,0.197,0.076,0.387,0.148,0.57
		c0.006,0.162,0.065,0.31,0.131,0.454c0.098,0.214,0.238,0.401,0.416,0.554c0.176,0.151,0.382,0.254,0.609,0.308
		c0.08,0.02,0.158,0.047,0.243,0.044C3.527,12.737,3.561,12.746,3.583,12.777z"/>
	<path fill-rule="evenodd" clip-rule="evenodd" fill="#293D4F" d="M3.977,12.371c-0.127,0.087-0.229,0.2-0.329,0.315
		c-0.177-0.012-0.353-0.018-0.523-0.088c-0.191-0.079-0.366-0.185-0.518-0.317c-0.125-0.109-0.219-0.254-0.285-0.411
		c-0.011-0.026-0.016-0.054,0.017-0.071c0.299,0.35,0.696,0.507,1.136,0.573c0.16,0.024,0.322,0.008,0.482-0.021
		C3.976,12.346,3.98,12.354,3.977,12.371z"/>
	<path fill-rule="evenodd" clip-rule="evenodd" fill="#2C3F53" d="M2.339,11.799c-0.017,0.1,0.06,0.161,0.099,0.236
		c0.036,0.069,0.092,0.128,0.14,0.191c0.011,0.015,0.021,0.033,0.036,0.041c0.125,0.066,0.219,0.188,0.351,0.234
		c0.173,0.063,0.334,0.179,0.534,0.146c0.056-0.009,0.098,0.032,0.149,0.039c-0.021,0.03-0.043,0.061-0.064,0.091
		c-0.2-0.023-0.396-0.06-0.581-0.144c-0.166-0.076-0.312-0.175-0.446-0.303c-0.196-0.187-0.328-0.407-0.416-0.655
		c-0.033-0.094-0.093-0.189-0.044-0.297C2.156,11.531,2.248,11.665,2.339,11.799z"/>
	<path fill-rule="evenodd" clip-rule="evenodd" fill="#8A655A" d="M1.947,10.809c-0.01-0.001-0.019-0.002-0.029-0.003
		c0.01-0.03,0.02-0.061,0.029-0.091C1.947,10.746,1.947,10.777,1.947,10.809z"/>
	<path fill-rule="evenodd" clip-rule="evenodd" fill="#685859" d="M3.977,12.371c-0.006-0.006-0.013-0.013-0.02-0.02
		c0.021-0.021,0.049-0.018,0.076-0.016C4.019,12.355,3.999,12.364,3.977,12.371z"/>
</g>
</svg>
