<?xml version="1.0" encoding="utf-8"?>
<!-- Generator: Adobe Illustrator 16.0.0, SVG Export Plug-In . SVG Version: 6.00 Build 0)  -->
<!DOCTYPE svg PUBLIC "-//W3C//DTD SVG 1.1//EN" "http://www.w3.org/Graphics/SVG/1.1/DTD/svg11.dtd">
<svg version="1.1" id="Layer_1" xmlns="http://www.w3.org/2000/svg" xmlns:xlink="http://www.w3.org/1999/xlink" x="0px" y="0px"
	 width="50px" height="64.896px" viewBox="0 0 50 64.896" enable-background="new 0 0 50 64.896" xml:space="preserve">
<g>
	<path fill="#A6A8AB" d="M36.513,5.662H24.502c0.427,0.596,0.803,1.228,1.13,1.89h7.642v13.894h14.768v41.559H8.695V26.131
		c-0.682-0.26-1.335-0.572-1.959-0.935v39.699H50v-45.62L36.513,5.662z M35.235,19.457V7.517l12.134,11.94H35.235z"/>
	<g>
		<polygon fill="#A6A8AB" points="16.326,11.965 21.229,7.061 19.584,5.416 14.679,10.32 14.679,3.384 12.353,3.384 12.353,10.319 
			7.448,5.416 5.803,7.061 10.708,11.965 3.771,11.965 3.771,14.292 10.708,14.292 5.803,19.196 7.449,20.841 12.353,15.938 
			12.353,22.873 14.679,22.873 14.679,15.938 19.584,20.841 21.229,19.196 16.325,14.292 23.261,14.292 23.261,11.965 		"/>
	</g>
	<g>
		<path fill="#A6A8AB" d="M26.16,37.775h-4.826v-3.413h13.813v3.413H30.24v14.559h-4.08V37.775z"/>
	</g>
</g>
</svg>
