<?xml version="1.0" encoding="utf-8"?>
<!-- Generator: Adobe Illustrator 16.0.0, SVG Export Plug-In . SVG Version: 6.00 Build 0)  -->
<!DOCTYPE svg PUBLIC "-//W3C//DTD SVG 1.1//EN" "http://www.w3.org/Graphics/SVG/1.1/DTD/svg11.dtd">
<svg version="1.1" id="Layer_1" xmlns="http://www.w3.org/2000/svg" xmlns:xlink="http://www.w3.org/1999/xlink" x="0px" y="0px"
	 width="20px" height="20px" viewBox="0 0 20 20" enable-background="new 0 0 20 20" xml:space="preserve">
<g>
	<path fill="#BE2328" d="M9.963,19.254c-2.482,0-4.815-0.967-6.57-2.722s-2.721-4.088-2.721-6.569c0-2.482,0.966-4.815,2.721-6.57
		s4.088-2.721,6.57-2.721c2.481,0,4.814,0.966,6.569,2.721s2.722,4.088,2.722,6.57c0,2.481-0.967,4.814-2.722,6.569
		S12.444,19.254,9.963,19.254z"/>
	<path fill="#E6E7E8" d="M9.963,1.344c4.76,0,8.618,3.859,8.618,8.619s-3.858,8.618-8.618,8.618s-8.619-3.858-8.619-8.618
		S5.203,1.344,9.963,1.344 M9.963,0C8.619,0,7.314,0.263,6.084,0.784c-1.187,0.502-2.252,1.22-3.167,2.134
		c-0.914,0.915-1.632,1.98-2.134,3.167C0.263,7.314,0,8.619,0,9.963c0,1.345,0.263,2.649,0.784,3.878
		c0.502,1.188,1.22,2.252,2.134,3.167c0.915,0.914,1.98,1.633,3.167,2.135c1.229,0.52,2.534,0.783,3.878,0.783
		c1.345,0,2.649-0.264,3.878-0.783c1.188-0.502,2.252-1.221,3.167-2.135c0.914-0.915,1.633-1.979,2.135-3.167
		c0.52-1.229,0.783-2.533,0.783-3.878c0-1.344-0.264-2.649-0.783-3.878c-0.502-1.187-1.221-2.252-2.135-3.167
		c-0.915-0.914-1.979-1.632-3.167-2.134C12.612,0.263,11.308,0,9.963,0z"/>
	<path fill="#FFFFFF" d="M12.281,4.939c0,0.223-0.18,0.404-0.402,0.404H8.048c-0.223,0-0.403-0.181-0.403-0.404V4.67
		c0-0.223,0.18-0.403,0.403-0.403h3.831c0.223,0,0.402,0.181,0.402,0.403V4.939z"/>
	<path fill="#FFFFFF" d="M12.281,4.939h-0.017c0,0.107-0.043,0.204-0.112,0.273c-0.071,0.07-0.167,0.113-0.273,0.113H8.048
		c-0.107,0-0.204-0.043-0.273-0.113c-0.07-0.07-0.113-0.167-0.113-0.273V4.67c0-0.106,0.043-0.203,0.113-0.273
		c0.07-0.07,0.167-0.113,0.273-0.113h3.831c0.106,0,0.202,0.043,0.273,0.113c0.069,0.07,0.112,0.167,0.112,0.273v0.269H12.281h0.017
		V4.67c0-0.232-0.188-0.42-0.419-0.42H8.048c-0.232,0-0.42,0.188-0.42,0.42v0.269c0,0.232,0.188,0.42,0.42,0.42h3.831
		c0.231,0,0.419-0.188,0.419-0.42H12.281z"/>
	<line fill="#FFFFFF" x1="9.963" y1="5.779" x2="9.963" y2="8.165"/>
	<polyline fill="#FFFFFF" points="9.644,5.779 9.644,8.165 10.282,8.165 10.282,5.779 	"/>
	<path fill="#FFFFFF" d="M13.088,14.583h-0.319c0,0.013-0.002,0.022-0.006,0.033c-0.006,0.015-0.018,0.028-0.031,0.037
		s-0.028,0.014-0.047,0.014H7.241c-0.012,0-0.022-0.002-0.033-0.006c-0.014-0.007-0.028-0.018-0.037-0.031
		c-0.009-0.014-0.014-0.028-0.014-0.047V9.14c0-0.013,0.002-0.023,0.006-0.033C7.169,9.092,7.181,9.079,7.194,9.07
		c0.014-0.009,0.028-0.014,0.046-0.014h5.444c0.013,0,0.023,0.002,0.032,0.006c0.015,0.006,0.028,0.018,0.037,0.031
		c0.01,0.014,0.015,0.028,0.015,0.047v5.443H13.088h0.319V9.14c0-0.099-0.021-0.195-0.057-0.282
		c-0.055-0.13-0.146-0.239-0.262-0.317c-0.115-0.078-0.256-0.124-0.404-0.124H7.241c-0.099,0-0.194,0.021-0.281,0.057
		C6.83,8.529,6.72,8.621,6.642,8.735C6.564,8.85,6.519,8.991,6.519,9.14v5.443c0,0.1,0.02,0.194,0.057,0.281
		c0.056,0.131,0.146,0.24,0.262,0.318c0.115,0.077,0.255,0.123,0.404,0.123h5.444c0.099,0,0.195-0.02,0.282-0.057
		c0.129-0.056,0.238-0.146,0.316-0.261c0.079-0.115,0.124-0.256,0.124-0.405H13.088z"/>
	<g>
		<path fill="#FFFFFF" d="M9.793,11.325H9.221v-0.404h1.637v0.404h-0.582v1.725H9.793V11.325z"/>
	</g>
	<g>
		<path fill="none" d="M9.793,11.325H9.221v-0.404h1.637v0.404h-0.582v1.725H9.793V11.325z"/>
	</g>
	<path fill="#FFFFFF" d="M16.663,13.364h-0.218c0,0.293-0.118,0.557-0.309,0.748c-0.097,0.096-0.209,0.174-0.335,0.227
		c-0.126,0.054-0.264,0.083-0.409,0.083c-0.146,0-0.283-0.029-0.41-0.083c-0.188-0.08-0.35-0.214-0.463-0.383
		c-0.113-0.17-0.18-0.373-0.18-0.592c0-0.294,0.117-0.558,0.309-0.75c0.095-0.095,0.209-0.173,0.334-0.227
		c0.127-0.053,0.264-0.083,0.41-0.083c0.146,0,0.283,0.03,0.409,0.083c0.188,0.08,0.35,0.215,0.463,0.384
		c0.114,0.169,0.181,0.372,0.181,0.593H16.663h0.219c0-0.412-0.167-0.788-0.436-1.059c-0.135-0.134-0.295-0.244-0.475-0.319
		c-0.178-0.076-0.374-0.118-0.579-0.118s-0.401,0.042-0.581,0.118c-0.267,0.114-0.494,0.304-0.655,0.541
		c-0.16,0.238-0.253,0.527-0.253,0.837c0,0.411,0.166,0.786,0.436,1.057c0.135,0.136,0.295,0.244,0.473,0.32
		c0.18,0.076,0.376,0.117,0.581,0.117s0.401-0.041,0.579-0.117c0.269-0.113,0.495-0.303,0.655-0.542
		c0.161-0.238,0.255-0.527,0.255-0.835H16.663z"/>
	<path fill="#FFFFFF" d="M12.995,13.524c0.001-0.798,0.946-1.444,2.109-1.441"/>
	<path fill="#FFFFFF" d="M13.214,13.525c0-0.156,0.046-0.305,0.134-0.447c0.066-0.106,0.156-0.209,0.269-0.303
		c0.169-0.14,0.389-0.26,0.641-0.343c0.254-0.084,0.541-0.132,0.845-0.132h0.003l0.001-0.437h-0.004
		c-0.312,0-0.608,0.042-0.881,0.122c-0.407,0.118-0.762,0.316-1.021,0.578c-0.129,0.132-0.234,0.279-0.309,0.441
		c-0.073,0.161-0.114,0.337-0.114,0.519L13.214,13.525z"/>
	<path fill="#FFFFFF" d="M14.785,12.193c0.854-0.796,1.986-0.967,2.53-0.383"/>
	<path fill="#FFFFFF" d="M14.934,12.353c0.238-0.222,0.499-0.39,0.758-0.502s0.515-0.169,0.742-0.169
		c0.153,0,0.292,0.025,0.413,0.072c0.121,0.046,0.224,0.114,0.309,0.205l0.319-0.297c-0.132-0.143-0.294-0.248-0.472-0.316
		c-0.177-0.068-0.369-0.1-0.569-0.1c-0.297,0-0.609,0.07-0.916,0.203c-0.308,0.134-0.608,0.329-0.882,0.584L14.934,12.353z"/>
</g>
</svg>
